<mxfile host="65bd71144e">
    <diagram id="YFCK80sJQwj-r0wWSXdG" name="Page-1">
        <mxGraphModel dx="2858" dy="1768" grid="1" gridSize="10" guides="1" tooltips="1" connect="1" arrows="1" fold="1" page="1" pageScale="1" pageWidth="850" pageHeight="1100" math="0" shadow="0">
            <root>
                <mxCell id="0"/>
                <mxCell id="1" parent="0"/>
                <mxCell id="2" value="" style="rounded=0;whiteSpace=wrap;html=1;" parent="1" vertex="1">
                    <mxGeometry x="150" y="160" width="1920" height="1080" as="geometry"/>
                </mxCell>
                <mxCell id="3" value="&lt;font style=&quot;font-size: 20px;&quot;&gt;Banneri&lt;/font&gt;" style="rounded=0;whiteSpace=wrap;html=1;fillColor=#008a00;fontColor=#ffffff;strokeColor=#005700;" parent="1" vertex="1">
                    <mxGeometry x="380" y="300" width="1460" height="150" as="geometry"/>
                </mxCell>
                <mxCell id="4" value="&lt;font style=&quot;font-size: 20px;&quot;&gt;Navigointi&lt;/font&gt;" style="rounded=0;whiteSpace=wrap;html=1;fillColor=#f0a30a;fontColor=#000000;strokeColor=#BD7000;" parent="1" vertex="1">
                    <mxGeometry x="380" y="460" width="1460" height="60" as="geometry"/>
                </mxCell>
                <mxCell id="5" value="chattiAlue" style="rounded=0;whiteSpace=wrap;html=1;fontSize=20;fillColor=#0050ef;fontColor=#ffffff;strokeColor=#001DBC;" parent="1" vertex="1">
                    <mxGeometry x="1700" y="1180" width="250" height="60" as="geometry"/>
                </mxCell>
                <mxCell id="6" value="Slogan" style="rounded=0;whiteSpace=wrap;html=1;fillColor=#a20025;fontColor=#ffffff;strokeColor=#6F0000;" vertex="1" parent="1">
                    <mxGeometry x="740" y="200" width="740" height="60" as="geometry"/>
                </mxCell>
                <mxCell id="7" value="&lt;p style=&quot;margin: 0in 0in 0in 0.25in; font-family: &amp;quot;Times New Roman&amp;quot;, serif; text-align: start; vertical-align: baseline;&quot;&gt;&lt;span style=&quot;font-family: Arial, sans-serif;&quot; lang=&quot;FI&quot;&gt;&lt;font style=&quot;font-size: 17px;&quot; color=&quot;#ffffff&quot;&gt;Striimi/videoalue&lt;/font&gt;&lt;/span&gt;&lt;/p&gt;" style="rounded=0;whiteSpace=wrap;html=1;rotation=0;fillColor=#008a00;fontColor=#ffffff;strokeColor=#005700;" vertex="1" parent="1">
                    <mxGeometry x="930" y="590" width="910" height="400" as="geometry"/>
                </mxCell>
                <mxCell id="8" value="&lt;p style=&quot;margin: 0in 0in 0in 0.25in; font-size: 12pt; font-family: &amp;quot;Times New Roman&amp;quot;, serif; text-align: start; vertical-align: baseline;&quot;&gt;&lt;span style=&quot;font-size: 11pt; font-family: Arial, sans-serif;&quot; lang=&quot;FI&quot;&gt;Tietoa tapahtumasta&lt;font color=&quot;#000000&quot;&gt;&lt;/font&gt;&lt;/span&gt;&lt;/p&gt;" style="rounded=0;whiteSpace=wrap;html=1;fontSize=17;fillColor=#fa6800;strokeColor=#C73500;fontColor=#000000;" vertex="1" parent="1">
                    <mxGeometry x="380" y="590" width="480" height="400" as="geometry"/>
                </mxCell>
                <mxCell id="9" value="Footer" style="rounded=0;whiteSpace=wrap;html=1;fontSize=17;fontColor=#FFFFFF;" vertex="1" parent="1">
                    <mxGeometry x="380" y="1030" width="1460" height="60" as="geometry"/>
                </mxCell>
            </root>
        </mxGraphModel>
    </diagram>
</mxfile>